{"title":"Gabbar Is Back (2015) DvD Rip - X264 - [1CD] - M-Subs - Team IcT","uid":12021828,"size":733981767,"categoryP":"video","categoryS":"movies","magnet":"?xt=urn:btih:35df076cc4f1f90d916e035f6b7b7094718ef551&amp;dn=Gabbar+Is+Back+%282015%29+DvD+Rip+-+X264+-+%5B1CD%5D+-+M-Subs+-+Team+IcT&amp;tr=udp%3A%2F%2Ftracker.openbittorrent.com%3A80&amp;tr=udp%3A%2F%2Fopen.demonii.com%3A1337&amp;tr=udp%3A%2F%2Ftracker.coppersurfer.tk%3A6969&amp;tr=udp%3A%2F%2Fexodus.desync.com%3A6969","seeders":2,"leechers":2,"uploader":"SS132203","files":5,"time":1434454678,"description":"Gabbar Is Back (2015) DvD Rip - X264 - [1CD] - M-Subs - Team IcTv Exclusive\n &lt;a href=&quot;\nhttp://imgsparrow.co/image/47&quot; rel=&quot;nofollow&quot; target=&quot;_NEW&quot;&gt;\nhttp://imgsparrow.co/image/47&lt;/a&gt;\n &lt;a href=&quot;\nhttp://imgsparrow.co/image/Jh&quot; rel=&quot;nofollow&quot; target=&quot;_NEW&quot;&gt;\nhttp://imgsparrow.co/image/Jh&lt;/a&gt;\n\nInfo : - \n\nEnjoyee Exclusivewaa Release By IcTv\nAll Credit Goes To Intellect Clever &amp; IcTv (Thank Them Not Me)\n\nFormat                      : Matroska\nFormat version              : Version 2\nFile size                   : 697 MiB\nDuration                    : 2h 3mn\nOverall bit rate            : 790 Kbps\n\nMovie Info\nBanner : Viacom 18 Motion Pictures\nYear : 2015\nCast : Akshay Kumar.Shruti Haasan.Kareena Kapoor\nVideo: X264\nAudio : AC 3\nGenre : Action / Drama\nSubtitles : English/Arabic\nResolution : 640 x 272\nRuntime : 2hr 03min xx\nSource : Team IcTv\n\nVideo\nID                          : 1\nFormat                      : AVC\nFormat/Info                 : Advanced Video Codec\nFormat profile              : High@L3\nFormat settings, CABAC      : Yes\nFormat settings, ReFrames   : 4 frames\nCodec ID                    : V_MPEG4/ISO/AVC\nDuration                    : 2h 3mn\nBit rate                    : 404 Kbps\nWidth                       : 640 pixels\nHeight                      : 272 pixels\nDisplay aspect ratio        : 2.35:1\nFrame rate mode             : Constant\nFrame rate                  : 29.970 fps\nColor space                 : YUV\nChroma subsampling          : 4:2:0\nBit depth                   : 8 bits\nScan type                   : Progressive\nBits/(Pixel*Frame)          : 0.077\nStream size                 : 345 MiB (49%)\nWriting library             : x264 core 146 r2538 121396c\nDefault                     : Yes\nForced                      : No\n\nAudio\nID                          : 2\nFormat                      : AC-3\nFormat/Info                 : Audio Coding 3\nMode extension              : CM (complete main)\nFormat settings, Endianness : Big\nCodec ID                    : A_AC3\nDuration                    : 2h 3mn\nBit rate mode               : Constant\nBit rate                    : 384 Kbps\nChannel(s)                  : 2 channels\nChannel positions           : Front: L R\nSampling rate               : 48.0 KHz\nCompression mode            : Lossy\nStream size                 : 339 MiB (49%)\n\nScreens : - \n &lt;a href=&quot;\nhttp://imgsparrow.co/image/5V&quot; rel=&quot;nofollow&quot; target=&quot;_NEW&quot;&gt;\nhttp://imgsparrow.co/image/5V&lt;/a&gt; &lt;a href=&quot;\nhttp://imgsparrow.co/image/5l&quot; rel=&quot;nofollow&quot; target=&quot;_NEW&quot;&gt;\nhttp://imgsparrow.co/image/5l&lt;/a&gt; &lt;a href=&quot;\nhttp://imgsparrow.co/image/5s&quot; rel=&quot;nofollow&quot; target=&quot;_NEW&quot;&gt;\nhttp://imgsparrow.co/image/5s&lt;/a&gt; &lt;a href=&quot;\nhttp://imgsparrow.co/image/5S&quot; rel=&quot;nofollow&quot; target=&quot;_NEW&quot;&gt;\nhttp://imgsparrow.co/image/5S&lt;/a&gt; &lt;a href=&quot;\nhttp://imgsparrow.co/image/5R&quot; rel=&quot;nofollow&quot; target=&quot;_NEW&quot;&gt;\nhttp://imgsparrow.co/image/5R&lt;/a&gt; &lt;a href=&quot;\nhttp://imgsparrow.co/image/5v&quot; rel=&quot;nofollow&quot; target=&quot;_NEW&quot;&gt;\nhttp://imgsparrow.co/image/5v&lt;/a&gt; &lt;a href=&quot;\nhttp://imgsparrow.co/image/5x&quot; rel=&quot;nofollow&quot; target=&quot;_NEW&quot;&gt;\nhttp://imgsparrow.co/image/5x&lt;/a&gt; &lt;a href=&quot;\nhttp://imgsparrow.co/image/5C&quot; rel=&quot;nofollow&quot; target=&quot;_NEW&quot;&gt;\nhttp://imgsparrow.co/image/5C&lt;/a&gt; &lt;a href=&quot;\nhttp://imgsparrow.co/image/51&quot; rel=&quot;nofollow&quot; target=&quot;_NEW&quot;&gt;\nhttp://imgsparrow.co/image/51&lt;/a&gt; &lt;a href=&quot;\nhttp://imgsparrow.co/image/A6&quot; rel=&quot;nofollow&quot; target=&quot;_NEW&quot;&gt;\nhttp://imgsparrow.co/image/A6&lt;/a&gt;\n &lt;a href=&quot;\nhttp://imgsparrow.co/image/N2&quot; rel=&quot;nofollow&quot; target=&quot;_NEW&quot;&gt;\nhttp://imgsparrow.co/image/N2&lt;/a&gt;","torrent":{"xt":"urn:btih:35df076cc4f1f90d916e035f6b7b7094718ef551","amp;dn":"Gabbar+Is+Back+%282015%29+DvD+Rip+-+X264+-+%5B1CD%5D+-+M-Subs+-+Team+IcT","amp;tr":["udp%3A%2F%2Ftracker.openbittorrent.com%3A80","udp%3A%2F%2Fopen.demonii.com%3A1337","udp%3A%2F%2Ftracker.coppersurfer.tk%3A6969","udp%3A%2F%2Fexodus.desync.com%3A6969"],"infoHash":"35df076cc4f1f90d916e035f6b7b7094718ef551","infoHashBuffer":{"type":"Buffer","data":[53,223,7,108,196,241,249,13,145,110,3,95,107,123,112,148,113,142,245,81]},"announce":[],"urlList":[]}}